<svg xmlns="http://www.w3.org/2000/svg" width="400" height="1449" viewBox="0 0 400 1449"><svg xml:space="preserve" height="258" width="265" version="1.1" y="0" x="0" enable-background="new 416.951 288.3 165.453 158.362" viewBox="366.95 238.3 265.45 258.36"><rect y="355.23" x="437.98" height="89.57" width="121.99" fill="#fff"/><path d="m561.83 446.66h-125.68v-93.27h125.68v93.27zm-121.99-3.69h118.3v-85.88h-118.3v85.88z" fill="#1B1435"/><polygon points="498.83 299.28 437.16 354.87 560.13 354.87" fill="#fff"/><path d="m561.83 353.43l-63-56.63-62.84 56.63v3.27h125.75l0.09-3.27zm-63-51.63l56.54 51.24h-113.37l56.83-51.24z" fill="#1B1435"/><rect y="305.65" x="451.97" height="115.03" width="94.05" fill="#fff"/><g fill="#1B1435"><path d="m547.85 422.51h-97.68v-118.65h97.68v118.65zm-94.05-3.62h90.42v-111.41h-90.42v111.41z"/><rect y="326.08" x="489.22" height="3.01" width="42.71"/><rect y="333.37" x="489.22" height="3.01" width="42.71"/></g><rect y="324.05" x="467.65" height="14.41" width="15.42" fill="#7CCDD2"/><rect y="350.62" x="489.22" height="3.01" width="42.71" fill="#1B1435"/><rect y="357.91" x="489.22" height="3.01" width="42.71" fill="#1B1435"/><rect y="348.56" x="467.65" height="14.41" width="15.42" fill="#DD5789"/><rect y="375.29" x="489.22" height="3.01" width="42.71" fill="#1B1435"/><rect y="382.58" x="489.22" height="3.01" width="42.71" fill="#1B1435"/><rect y="373.23" x="467.65" height="14.41" width="15.42" fill="#7D588A"/><polygon points="443.83 361.5 500.89 402.64 478.57 425.16 442 425.16" fill="#fff"/><polygon points="552.85 359.83 502.1 398.04 524.42 420.52 553.3 426.99" fill="#fff"/><rect transform="matrix(-.601 -.7992 .7992 -.601 482.57 1040.1)" height="147.42" width="3.7" y="325.87" x="499.04" fill="#1B1435"/><rect transform="matrix(-.7993 -.6009 .6009 -.7993 653.7 1017.3)" height="3.69" width="147.41" y="397.65" x="423.02" fill="#1B1435"/><polygon points="498.99 391.83 440.92 444.8 556.7 444.8" fill="#fff"/><path d="m561.47 446.66h-125.32l62.84-57.32 62.48 57.32zm-115.78-3.69h106.24l-52.97-48.59-53.27 48.59z" fill="#1B1435"/><circle cy="305.65" cx="546.02" r="17.35" fill="#DD5789"/><path d="m545.07 315.06v-13.66l-3.14 3.2-2.29-2.39 5.91-5.95h3.5v18.82l-3.98-0.02z" fill="#fff"/></svg><svg xml:space="preserve" height="258" width="265" version="1.1" y="258" x="0" enable-background="new 416.951 288.3 165.453 158.362" viewBox="366.95 238.3 265.45 258.36"><polygon points="459.34 332.84 580.57 332.84 580.57 412.71 565.25 412.71 565.25 442.15 528.62 412.71 459.34 412.71" fill="#fff"/><g fill="#1B1435"><path d="m567.11 446.04l-39.15-31.47h-70.49v-83.56h124.93v83.56h-15.33v31.47h0.04zm-105.91-35.16h68.07l34.12 27.42v-27.42h15.33v-76.17h-117.55v76.18h0.03z"/><rect y="364.05" x="485.35" height="16.08" width="17.22"/><rect y="364.05" x="511.36" height="16.08" width="17.22"/><rect y="364.05" x="537.37" height="16.08" width="17.22"/></g><polygon points="515.25 309.12 419.07 309.12 419.07 372.48 431.23 372.48 431.23 395.81 460.28 372.48 515.25 372.48" fill="#fff"/><path d="m429.11 400.26v-25.65h-12.16v-67.61h100.42v67.61h-56.34l-31.92 25.65zm-7.91-29.9h12.16v21.05l26.18-21.05h53.59v-59.12h-91.93v59.12z" fill="#1B1435"/><polygon points="517.9 307.84 419.07 307.84 419.07 372.94 431.56 372.94 431.56 396.96 461.43 372.94 517.9 372.94" fill="#fff"/><path d="m429.7 400.85v-26.05h-12.48v-68.79h102.51v68.79h-57.68l-32.35 26.05zm-8.76-29.74h12.48v21.99l27.35-21.99h55.26v-61.4h-95.13v61.4h0.04z" fill="#1B1435"/><rect y="333.27" x="482.67" height="13.1" width="14.02" fill="#DD5789"/><rect y="333.27" x="461.46" height="13.1" width="14.02" fill="#7CCDD2"/><rect y="333.27" x="440.25" height="13.1" width="14.02" fill="#7D588A"/></svg><svg xml:space="preserve" height="258" width="265" version="1.1" y="516" x="0" enable-background="new 416.951 288.3 165.453 158.362" viewBox="366.95 238.3 265.45 258.36"><path d="m499.68 302.84c35.7 0 64.64 28.94 64.64 64.64s-28.94 64.64-64.64 64.64c-35.7 0-64.64-28.94-64.64-64.64s28.94-64.64 64.64-64.64z" fill="#fff"/><path d="m499.68 433.98c-36.66 0-66.5-29.84-66.5-66.5s29.84-66.5 66.5-66.5c36.67 0 66.5 29.84 66.5 66.5s-29.84 66.5-66.5 66.5zm0-129.27c-34.6 0-62.77 28.17-62.77 62.78s28.17 62.78 62.78 62.78c34.61 0 62.78-28.17 62.78-62.78s-28.19-62.78-62.79-62.78z" fill="#1B1435"/><path d="m511.31 338.99l-0.98-0.36c-0.1-0.03-0.19 0.03-0.23 0.1l-13.53 38.33c-0.03 0.1 0.03 0.2 0.1 0.23l0.98 0.36c0.1 0.03 0.2-0.03 0.23-0.1l13.53-38.33c0.03-0.1 0-0.2-0.1-0.23z" fill="#DE588A"/><rect transform="matrix(.8702 -.4928 .4928 .8702 -122.61 300.28)" height="57.29" width="6.11" y="354.16" x="505.46" fill="#7CCDD2"/><rect transform="matrix(.6159 .7878 -.7878 .6159 484.36 -243.25)" height="46.18" width="3.99" y="352" x="489.64" fill="#7D588A"/><circle cy="367.48" cx="499.68" r="6.24" fill="#1B1435"/><polygon points="491.74 318.95 494.45 318.95 497.78 330 494.97 330" fill="#DE588A"/><polygon points="507.59 318.95 504.91 318.95 501.54 330 504.35 330" fill="#7DCDD2"/><polygon points="500.99 318.95 498.31 318.95 494.94 330 497.75 330" fill="#7DCDD2"/><polygon points="498.31 318.95 501.02 318.95 504.35 330 501.54 330" fill="#DE588A"/><g fill="#7D588A"><polygon points="498.31 318.95 499.65 323.56 500.99 318.95"/><polygon points="504.35 330 502.98 325.23 501.54 330"/><polygon points="497.75 330 496.38 325.23 494.94 330"/></g></svg><svg xml:space="preserve" height="339" width="400" version="1.1" y="774" x="0" enable-background="new 1.045 167.491 595.234 473.588" viewBox="-48.95 117.49 695.23 573.59"><g fill="#ccc"><rect y="407.74" x="481.82" height="3.85" width="2.85"/><path d="m476.01 411.59h-5.8v-3.85h5.8v3.85zm-11.56 0h-5.8v-3.85h5.8v3.85zm-11.56 0h-5.8v-3.85h5.8v3.85zm-11.56 0h-5.8v-3.85h5.81v3.85zm-11.56 0h-5.76v-3.85h5.76v3.85zm-11.56 0h-5.8v-3.85h5.81v3.85zm-11.56 0h-5.8v-3.85h5.81v3.85zm-11.56 0h-5.8v-3.85h5.8v3.85zm-11.56 0h-5.8v-3.85h5.81v3.85zm-11.56 0h-5.76v-3.85h5.76v3.85zm-11.56 0h-5.8v-3.85h5.81v3.85zm-11.56 0h-5.76v-3.85h5.76v3.85zm-11.56 0h-5.8v-3.85h5.81v3.85zm-11.56 0h-5.8v-3.85h5.8v3.85zm-11.56 0h-5.76v-3.85h5.76v3.85zm-11.56 0h-5.8v-3.85h5.81v3.85zm-11.56 0h-5.76v-3.85h5.76v3.85zm-11.56 0h-5.8v-3.85h5.81v3.85zm-11.56 0h-5.8v-3.85h5.8v3.85zm-11.56 0h-5.76v-3.85h5.76v3.85zm-11.56 0h-5.8v-3.85h5.8v3.85zm-11.56 0h-5.76v-3.85h5.76v3.85zm-11.56 0h-5.8v-3.85h5.81v3.85zm-11.56 0h-5.8v-3.85h5.81v3.85zm-11.56 0h-5.8v-3.85h5.81v3.85zm-11.56 0h-5.8v-3.85h5.8v3.85zm-11.56 0h-5.76v-3.85h5.76v3.85zm-11.56 0h-5.8v-3.85h5.81v3.85zm-11.56 0h-5.8v-3.85h5.76v3.85h0.04zm-11.56 0h-5.8v-3.85h5.81v3.85zm-11.56 0h-5.8v-3.85h5.8v3.85z"/><rect y="407.74" x="114.79" height="3.85" width="2.85"/><rect y="224.72" x="297.76" height="2.85" width="3.85"/><path d="m301.66 585.99h-3.85v-5.8h3.85v5.8zm0-11.56h-3.85v-5.8h3.85v5.8zm0-11.56h-3.85v-5.8h3.85v5.8zm0-11.56h-3.85v-5.8h3.85v5.8zm0-11.56h-3.85v-5.76h3.85v5.76zm0-11.56h-3.85v-5.8h3.85v5.8zm0-11.56h-3.85v-5.8h3.85v5.8zm0-11.56h-3.85v-5.8h3.85v5.8zm0-11.56h-3.85v-5.8h3.85v5.8zm0-11.56h-3.85v-5.76h3.85v5.76zm0-11.56h-3.85v-5.8h3.85v5.8zm0-11.56h-3.85v-5.8h3.85v5.8zm0-11.56h-3.85v-5.8h3.85v5.8zm0-11.56h-3.85v-5.8h3.85v5.8zm0-11.56h-3.85v-5.76h3.85v5.76zm0-11.56h-3.85v-5.8h3.85v5.8zm0-11.56h-3.85v-5.76h3.85v5.76zm0-11.56h-3.85v-5.8h3.85v5.8zm0-11.56h-3.85v-5.8h3.85v5.8zm0-11.56h-3.85v-5.8h3.85v5.8zm0-11.56h-3.85v-5.8h3.85v5.8zm0-11.56h-3.85v-5.76h3.85v5.76zm0-11.56h-3.85v-5.8h3.85v5.8zm0-11.56h-3.85v-5.8h3.85v5.8zm0-11.56h-3.85v-5.8h3.85v5.8zm0-11.56h-3.85v-5.8h3.85v5.8zm0-11.56h-3.85v-5.76h3.85v5.76zm0-11.56h-3.85v-5.8h3.85v5.8zm0-11.56h-3.85v-5.8h3.85v5.8zm0-11.57h-3.85v-5.8h3.85v5.8zm0-11.56h-3.85v-5.8h3.85v5.8z"/><rect y="591.75" x="297.76" height="2.86" width="3.85"/></g><rect y="339.09" x="211.13" height="130.4" width="177.59" fill="#fff"/><rect y="169.44" x="236.2" height="93.53" width="127.35" fill="#fff"/><g fill="#ccc"><path d="m365.5 264.92h-131.2v-97.38h131.21v97.38zm-127.35-3.85h123.5v-89.67h-123.5v89.67z"/><rect transform="matrix(-.6012 -.7991 .7991 -.6012 307.03 586.63)" height="153.95" width="3.85" y="139.73" x="297.98"/><rect transform="matrix(-.7992 -.6011 .6011 -.7992 409.36 570.25)" height="3.85" width="153.95" y="214.82" x="222.96"/></g><polygon points="299.71 224.72 360.36 169.44 239.43 169.44" fill="#fff"/><path d="m299.71 227.34l-65.22-59.85h130.87l-65.65 59.85zm-55.33-55.95l55.33 50.71 55.66-50.71h-110.99z" fill="#ccc"/><rect y="545.6" x="237.77" height="93.53" width="127.35" fill="#fff"/><g fill="#ccc"><path d="m367.07 641.08h-131.2v-97.38h131.21v97.38zm-127.35-3.85h123.5v-89.68h-123.5v89.68z"/><rect transform="matrix(-.6011 -.7992 .7992 -.6011 8.7618 1190.1)" height="153.9" width="3.85" y="515.91" x="299.49"/><rect transform="matrix(-.7993 -.6009 .6009 -.7993 185.99 1247.9)" height="3.85" width="153.9" y="590.97" x="224.43"/></g><polygon points="301.28 600.93 361.89 545.6 241 545.6" fill="#fff"/><path d="m301.28 603.59l-65.22-59.89h130.82l-65.6 59.89zm-55.33-56.04l55.33 50.76 55.61-50.76h-110.94z" fill="#ccc"/><rect y="358.21" x="2.95" height="93.53" width="127.35" fill="#fff"/><g fill="#ccc"><path d="m132.25 453.69h-131.2v-97.38h131.21v97.38zm-127.35-3.85h123.5v-89.67h-123.5v89.67z"/><rect transform="matrix(-.6011 -.7992 .7992 -.6011 -217.43 702.41)" height="153.9" width="3.85" y="328.53" x="64.67"/><rect transform="matrix(-.7993 -.6009 .6009 -.7993 -123.9 769.64)" height="3.85" width="153.9" y="403.58" x="-10.38"/></g><polygon points="66.51 413.54 127.11 358.21 6.23 358.21" fill="#fff"/><path d="m66.51 416.2l-65.23-59.89h130.83l-65.6 59.89zm-55.33-56.04l55.33 50.76 55.61-50.76h-110.94z" fill="#ccc"/><rect y="358.74" x="466.98" height="93.53" width="127.35" fill="#fff"/><g fill="#ccc"><path d="m596.28 454.21h-131.21v-97.38h131.21v97.38zm-127.35-3.85h123.5v-89.67h-123.5v89.67z"/><rect transform="matrix(-.6011 -.7992 .7992 -.6011 525.07 1074.1)" height="153.9" width="3.85" y="329.05" x="528.69"/><rect transform="matrix(-.7993 -.6009 .6009 -.7993 710.69 1049.4)" height="3.85" width="153.9" y="404.11" x="453.64"/></g><polygon points="530.49 414.02 591.09 358.74 470.21 358.74" fill="#fff"/><path d="m530.49 416.63l-65.22-59.8h130.83l-65.61 59.8zm-55.33-55.94l55.33 50.71 55.61-50.71h-110.94z" fill="#ccc"/><g fill="#1B1435"><rect y="371.06" x="225.73" height="50.24" width="148"/><rect y="354.55" x="211.22" height="5.38" width="177.49"/><circle cy="348.17" cx="220.22" r="2.71"/><circle cy="348.17" cx="227.83" r="2.71"/><circle cy="348.17" cx="235.44" r="2.71"/><rect y="430.24" x="254.85" height="4.38" width="93.24"/><rect y="440.85" x="254.85" height="4.38" width="93.24"/></g><rect y="382.81" x="288.01" height="5.47" width="46.62" fill="#7CCDD2"/><circle cy="396.46" cx="259.46" r="13.7" fill="#fff"/><rect y="454.74" x="327.44" height="13.18" width="36.77" fill="#DD5789"/><rect y="454.74" x="281.35" height="13.18" width="36.77" fill="#7CCDD2"/><rect y="454.74" x="235.25" height="13.18" width="36.77" fill="#7D588A"/><path d="m391.43 472.2h-182.97v-135.78h182.97v135.78zm-177.59-5.38h172.21v-125.02h-172.21v125.02z" fill="#1B1435"/><rect y="394.7" x="288.01" height="4.38" width="62.18" fill="#fff"/><rect y="405.31" x="288.01" height="4.38" width="36.44" fill="#fff"/></svg><svg xml:space="preserve" height="186" width="400" version="1.1" y="1113" x="0" enable-background="new 0 298.383 595.279 170.478" viewBox="-50 248.38 695.28 270.48"><polygon points="83.35 300.75 93.08 300.75 124.1 332.74 124.1 347.96 75.57 350.7" fill="#fff"/><path d="m75.32 350.95l0.04-0.25 7.82-50.12h9.98l0.04 0.08 31.07 32.02v15.51h-0.21l-48.74 2.76zm8.19-49.99l-7.69 49.53 48.08-2.7v-14.93l-30.9-31.86h-9.48v-0.04z"/><g fill="#1B1435"><rect y="380.56" x="430.87" height="3.37" width="2.5"/><path d="m425.84 383.93h-5.07v-3.37h5.07v3.37zm-10.1 0h-5.03v-3.37h5.07v3.37h-0.04zm-10.11 0h-5.07v-3.37h5.07v3.37zm-10.11 0h-5.07v-3.37h5.07v3.37zm-10.1 0h-5.07v-3.37h5.03v3.37h0.04zm-10.11 0h-5.07v-3.37h5.07v3.37zm-10.11 0h-5.07v-3.37h5.07v3.37zm-10.1 0h-5.07v-3.37h5.07v3.37zm-10.11 0h-5.07v-3.37h5.07v3.37zm-10.11 0h-5.03v-3.37h5.03v3.37zm-10.1 0h-5.07v-3.37h5.07v3.37zm-10.11 0h-5.07v-3.37h5.07v3.37zm-10.1 0h-5.03v-3.37h5.03v3.37zm-10.11 0h-5.07v-3.37h5.07v3.37zm-10.11 0h-5.07v-3.37h5.03v3.37h0.04zm-10.1 0h-5.07v-3.37h5.07v3.37zm-10.11 0h-5.07v-3.37h5.07v3.37zm-10.11 0h-5.07v-3.37h5.07v3.37zm-10.1 0h-5.07v-3.37h5.07v3.37zm-10.11 0h-5.03v-3.37h5.03v3.37zm-10.11 0h-5.07v-3.37h5.07v3.37zm-10.1 0h-5.03v-3.37h5.03v3.37zm-10.11 0h-5.07v-3.37h5.07v3.37zm-10.1 0h-5.03v-3.37h5.03v3.37zm-10.11 0h-5.07v-3.37h5.07v3.37zm-10.11 0h-5.07v-3.37h5.07v3.37zm-10.11 0h-5.07v-3.37h5.07v3.37zm-10.1 0h-5.07v-3.37h5.07v3.37zm-10.11 0h-5.07v-3.37h5.07v3.37zm-10.1 0h-5.07v-3.37h5.07v3.37zm-10.11 0h-5.03v-3.37h5.03v3.37z"/><rect y="380.56" x="110.05" height="3.37" width="2.5"/></g><rect y="328.58" x="417.94" height="81.77" width="111.34" fill="#fff"/><path d="m530.98 412.05h-114.7v-85.14h114.71v85.14zm-111.33-3.37h107.93v-78.4h-107.98v78.4h0.05z" fill="#ccc"/><polygon points="90.71 334.19 90.71 300.75 2.29 300.75 2.29 464.49 124.1 464.49 124.1 334.19" fill="#fff"/><g fill="#1B1435"><path d="m126.43 466.82h-126.43v-168.35h93.04v33.44h33.4v134.91zm-121.81-4.61h117.2v-125.69h-33.44v-33.44h-83.8v159.12h0.04z"/><rect transform="matrix(-.7045 -.7097 .7097 -.7045 -40.364 616.73)" height="4.62" width="47.04" y="314.46" x="84.7"/><rect y="391.3" x="28.2" height="3.83" width="70.62"/><rect y="400.57" x="28.2" height="3.83" width="70.62"/><rect y="418.12" x="28.2" height="3.83" width="70.62"/><rect y="427.4" x="28.2" height="3.83" width="70.62"/></g><circle cy="357.15" cx="46.58" r="20.59" fill="#7D588A"/><rect y="325.5" x="417.94" height="114" width="155.26" fill="#fff"/><g fill="#1B1435"><path d="m575.57 441.87h-159.96v-118.7h159.96v118.7zm-155.26-4.7h150.56v-109.3h-150.56v109.3z"/><rect transform="matrix(-.6009 -.7993 .7993 -.6009 486.97 1009.6)" height="187.62" width="4.7" y="289.44" x="493.19"/><rect transform="matrix(-.7992 -.601 .601 -.7992 661.36 987.03)" height="4.7" width="187.61" y="380.7" x="401.73"/></g><polygon points="495.34 392.88 569.25 325.5 421.89 325.5" fill="#fff"/><path d="m495.34 396.08l-79.52-72.91h159.5l-79.98 72.91zm-67.38-68.21l67.38 61.8 67.83-61.8h-135.21z" fill="#1B1435"/><circle cy="325.5" cx="573.2" r="22.08" fill="#DD5789"/><path d="m572.03 337.48v-17.39l-3.99 4.08-2.91-3.04 7.53-7.57h4.45v23.96l-5.08-0.04z" fill="#fff"/><polygon points="248.58 300.84 296.75 300.84 288.09 323.5 257.24 323.5" fill="#fff"/><path d="m289.8 325.96h-34.23l-10.52-27.57h55.31l-10.56 27.57zm-30.86-4.91h27.49l6.78-17.76h-41.01l6.74 17.76z" fill="#1B1435"/><polygon points="258.73 323.5 242.76 436.34 272.67 465.37 300.74 436.34 286.64 323.5" fill="#fff"/><path d="m272.71 468.86l-32.57-31.61 16.43-116.2h32.19l14.52 116.16-30.57 31.65zm-27.33-33.4l27.24 26.45 25.54-26.41-13.68-109.51h-23.62l-15.48 109.47z" fill="#1B1435"/><polygon points="296.75 405.52 248.58 441.37 242.68 433.43 295.5 394.46" fill="#DD5789"/><polygon points="295.83 384.27 246.71 420.87 245.76 409.22 290.84 375.66" fill="#7D588A"/><path d="m272.71 468.86l-32.57-31.61 16.43-116.2h32.19l14.52 116.16-30.57 31.65zm-27.33-33.4l27.24 26.45 25.54-26.41-13.68-109.51h-23.62l-15.48 109.47z" fill="#1B1435"/></svg><svg xml:space="preserve" height="150" width="171" version="1.1" y="1299" x="0" enable-background="new 0 0 71.141 49.655" viewBox="-50 -50 171.1 149.7"><polygon points="29.5 0 41.6 0 56.6 49.7 44 49.7" fill="#DE5A8C"/><polygon points="71.1 0 59 0 44 49.7 56.6 49.7" fill="#80CDD2"/><polygon points="41.6 0 29.5 0 14.5 49.7 27.1 49.7" fill="#80CDD2"/><polygon points="29.4 0 35.6 20.8 41.6 0" fill="#7E5A8C"/><polygon points="56.6 49.7 50.3 28.7 44 49.7" fill="#7E5A8C"/><polygon points="0 0 12.1 0 27.1 49.7 14.5 49.7" fill="#DE5A8C"/><polygon points="27.1 49.7 20.8 28.7 14.5 49.7" fill="#7E5A8C"/></svg></svg>