<svg version="1.1" xmlns="http://www.w3.org/2000/svg" x="0" y="0" width="397.44" height="51.4" viewBox="107.02 371.43 397.44 51.4" enable-background="new 107.021 371.43 397.444 51.402" xml:space="preserve"><polygon fill="#FFFFFF" points="427.16 372.36 439.29 372.36 454.3 422.01 441.65 422.01 "/><polygon fill="#E5E5E5" points="439.29 372.36 427.16 372.36 412.15 422.01 424.79 422.01 "/><polygon fill="#CDCCCC" points="427.05 372.36 433.22 393.12 439.29 372.36 "/><polygon fill="#CDCCCC" points="424.79 422.01 418.42 401.04 412.15 422.01 "/><polygon fill="#DE598B" points="136.53 372.36 148.66 372.36 163.67 422.01 151.02 422.01 "/><polygon fill="#7FCDD2" points="178.16 372.36 166.03 372.36 151.02 422.01 163.67 422.01 "/><polygon fill="#7FCDD2" points="148.66 372.36 136.53 372.36 121.52 422.01 134.16 422.01 "/><polygon fill="#7D598B" points="136.42 372.36 142.59 393.12 148.66 372.36 "/><polygon fill="#7D598B" points="163.67 422.01 157.29 401.04 151.02 422.01 "/><polygon fill="#DE598B" points="107.02 372.36 119.15 372.36 134.16 422.01 121.52 422.01 "/><polygon fill="#7D598B" points="134.16 422.01 127.79 401.04 121.52 422.01 "/><path fill="#FFFFFF" d="M185.15 397.13c0-15.01 11-25.7 26.01-25.7s25.91 10.69 25.91 25.7 -11 25.7-25.91 25.7C196.05 422.83 185.15 412.14 185.15 397.13zM226.17 397.13c0-9.35-5.86-16.35-15.01-16.35 -9.25 0-15.11 6.99-15.11 16.35 0 9.25 5.86 16.35 15.11 16.35C220.31 413.48 226.17 406.38 226.17 397.13z"/><path fill="#FFFFFF" d="M278.91 422.01l-9.77-17.68h-7.71v17.68h-10.59v-49.76h23.23c10.38 0 16.76 6.79 16.76 16.04 0 8.74-5.55 13.47-11 14.8l11.21 18.92H278.91L278.91 422.01zM279.94 388.19c0-4.11-3.19-6.68-7.4-6.68h-11.2v13.37h11.21C276.65 394.97 279.94 392.4 279.94 388.19z"/><path fill="#FFFFFF" d="M334.43 422.01l-15.01-19.94 -3.91 4.73v15.32H304.92v-49.76h10.59v22.1l17.58-22.1h13.06l-19.74 23.34 21.08 26.42h-13.06V422.01z"/><path fill="#FFFFFF" d="M387.68 422.01l-9.77-17.68h-7.71v17.68h-10.59v-49.76h23.23c10.38 0 16.76 6.79 16.76 16.04 0 8.74-5.55 13.47-11 14.8l11.21 18.92H387.68L387.68 422.01zM388.81 388.19c0-4.11-3.19-6.68-7.4-6.68h-11.21v13.37h11.21C385.52 394.97 388.81 392.4 388.81 388.19z"/><path fill="#FFFFFF" d="M474.76 422.01v-20.35l-19.12-29.4h12.13l12.34 19.94 12.34-19.94h12.03l-19.02 29.4v20.36H474.76z"/></svg>